<svg xmlns="http://www.w3.org/2000/svg" width="512" height="512" viewBox="0 0 31.678 31.678"><g fill="#FFDA44"><path d="M15.88 3.567c-.013 0-.038-.003-.038-.003l-.045-.002a9.69 9.69 0 0 0 0 19.381l.038-.002s.03.008.045.008c5.353 0 9.691-4.34 9.691-9.692 0-5.349-4.339-9.69-9.691-9.69z"/><path d="M25.329 20.994a1.1 1.1 0 0 1 .448-.02c.716.109 1.035-.33.709-.975-.324-.647 0-1.21.722-1.25.724-.042.944-.538.492-1.103-.453-.564-.253-1.183.444-1.373.699-.189.812-.723.25-1.18-.561-.458-.491-1.104.15-1.438.645-.331.645-.871 0-1.204-.643-.332-.711-.978-.15-1.436.562-.458.449-.988-.25-1.179-.697-.19-.897-.809-.444-1.374.452-.563.231-1.06-.492-1.101-.722-.042-1.046-.604-.722-1.249.326-.647.007-1.087-.709-.976-.715.108-1.149-.373-.965-1.073.184-.7-.219-1.063-.896-.808-.678.256-1.202-.125-1.168-.848.035-.724-.436-.995-1.043-.602-.609.391-1.202.127-1.318-.588-.117-.716-.633-.883-1.146-.374-.514.51-1.15.374-1.412-.3s-.803-.729-1.198-.126c-.215.328-.503.46-.787.433-.286.031-.577-.103-.794-.433-.396-.604-.936-.548-1.198.126s-.898.81-1.412.3c-.515-.51-1.03-.343-1.147.373-.117.715-.711.979-1.319.588-.61-.391-1.08-.12-1.045.604.033.721-.491 1.102-1.168.846-.677-.254-1.08.108-.896.808s-.25 1.183-.965 1.073c-.716-.111-1.035.328-.709.976.324.646 0 1.207-.722 1.249-.723.041-.944.537-.492 1.1.454.566.253 1.185-.444 1.374-.699.19-.811.721-.25 1.179s.492 1.104-.15 1.436c-.645.333-.645.873 0 1.204.643.334.711.979.15 1.438-.561.457-.448.989.25 1.18.698.19.898.809.445 1.373-.452.563-.231 1.061.492 1.103.722.04 1.046.603.722 1.25-.327.643-.008 1.083.708.973.167-.026.316-.017.448.02l-3.977 7.447h4.2l2.134 3.236 4.018-6.617c.445-.231.912-.048 1.127.505.262.675.803.73 1.198.126.215-.327.503-.459.787-.432v.005c.286-.031.577.102.794.432.396.604.936.55 1.198-.126.215-.553.683-.736 1.127-.505l4.019 6.617 2.133-3.236h4.201l-3.978-7.448zm-4.336 1.496l-.151.083a10.601 10.601 0 0 1-4.979 1.239c-.007 0-.02-.007-.02-.007l-.027.001c-1.799 0-3.493-.451-4.979-1.24l-.152-.083c-3.259-1.8-5.472-5.253-5.472-9.214 0-5.809 4.757-10.535 10.603-10.535.007 0 .02.007.02.007l.027-.001c5.846 0 10.603 4.727 10.603 10.535-.002 3.961-2.214 7.414-5.473 9.215z"/></g></svg>